# xmcd CD database file
#
# Track frame offsets:
#	150
#	16549
#	29846
#	51537
#	64579
#	77095
#	98170
#	113383
#	126291
#	150670
#	154771
#	178002
#	200424
#	219049
#	248933
#
# Disc length: 3647 seconds
#
# Revision: 0
# Processed by: cddbd v1.5.2PL0 Copyright (c) Steve Scherf et al.
# Submitted via: CDex 1.51
#
DISCID=bf0e3d0f
DTITLE=Fanfare jo Bithume - Wolfang!
DYEAR=2004
DGENRE=Jazz
TTITLE0=Le songe
TTITLE1=On the Desert Road
TTITLE2=Ya Rayah
TTITLE3=Day Tripper
TTITLE4=Amarcord
TTITLE5=Le danseur de Charleston
TTITLE6=Mari Momé
TTITLE7=Ray of Ligth
TTITLE8=La Fuegga Raccia
TTITLE9=La Sarabande
TTITLE10=Coming Back
TTITLE11=Preparense
TTITLE12=Je voudrais être noir
TTITLE13=Le Bolero
TTITLE14=Hanuca Hollyday
EXTD=YEAR: 2004
EXTT0=
EXTT1=
EXTT2=
EXTT3=
EXTT4=
EXTT5=
EXTT6=
EXTT7=
EXTT8=
EXTT9=
EXTT10=
EXTT11=
EXTT12=
EXTT13=
EXTT14=
PLAYORDER=
